<svg version="1.1" viewBox="0.0 0.0 403.0 375.0" fill="none" stroke="none" stroke-linecap="square" stroke-miterlimit="10" xmlns:xlink="http://www.w3.org/1999/xlink" xmlns="http://www.w3.org/2000/svg"><clipPath id="p.0"><path d="m0 0l403.0 0l0 375.0l-403.0 0l0 -375.0z" clip-rule="nonzero"/></clipPath><g clip-path="url(#p.0)"><path fill="#000000" fill-opacity="0.0" d="m0 0l403.0 0l0 375.0l-403.0 0z" fill-rule="evenodd"/><path fill="#f8f9fa" d="m11.994751 188.39108l0 0c0 -98.21972 84.98834 -177.84253 189.82677 -177.84253l0 0c104.838425 0 189.82677 79.62281 189.82677 177.84253l0 0c0 98.219696 -84.98834 177.8425 -189.82677 177.8425l0 0c-104.838425 0 -189.82677 -79.6228 -189.82677 -177.8425z" fill-rule="evenodd"/><path fill="#000000" fill-opacity="0.0" d="m226.43307 72.86352l314.9606 0l0 314.96063l-314.9606 0z" fill-rule="evenodd"/><path fill="#000000" d="m334.5112 247.67696q1.65625 0 2.609375 1.546875q0.96875 1.53125 0.96875 4.21875q0 4.9843903 -2.4375 7.9375153q-7.15625 8.578125 -13.890625 12.03125q-6.71875 3.453125 -16.1875 3.453125q-6.65625 0 -12.296875 -1.65625q-5.625 -1.671875 -13.6875 -5.0q-7.296875 -3.203125 -14.078125 -5.25q-6.53125 11.90625 -19.578125 11.90625q-7.171875 0 -11.453125 -3.265625q-4.296875 -3.265625 -4.296875 -8.390625q0 -6.265625 6.015625 -10.42189q6.015625 -4.15625 16.0 -4.15625l1.671875 0l2.296875 -37.25q0.765625 -12.796875 4.609375 -21.109375q3.84375 -8.328125 10.625 -14.21875q5.890625 -5.125 13.4375 -7.75q7.546875 -2.625 16.0 -2.625q13.828125 0 21.25 7.171875q7.421875 7.171875 7.421875 18.6875q0 7.8125 -2.8125 12.609375q-2.8125 4.796875 -7.8125 4.796875q-3.578125 0 -5.625 -1.71875q-2.046875 -1.734375 -2.046875 -4.9375q0 -1.15625 0.5 -4.21875q0.78125 -3.59375 0.78125 -6.40625q0 -5.375 -3.140625 -8.5q-3.140625 -3.140625 -9.53125 -3.140625q-11.265625 0 -17.421875 7.359375q-6.140625 7.359375 -7.796875 23.09375l-2.953125 29.0625q-0.640625 6.140625 -1.65625 10.625q8.1875 1.40625 20.484375 4.4843903q7.15625 1.78125 11.0 2.5625q3.84375 0.765625 6.78125 0.765625q7.421875 0 12.734375 -2.5q5.3125 -2.5000153 10.046875 -8.000015q1.546875 -1.796875 3.46875 -1.796875z" fill-rule="nonzero"/><path fill="#000000" fill-opacity="0.0" d="m54.183727 0l314.96063 0l0 314.96063l-314.96063 0z" fill-rule="evenodd"/><path fill="#000000" d="m174.2931 121.438446q0 10.875 -7.6875 18.75q-7.671875 7.875 -22.390625 11.328125q7.921875 2.1875 12.015625 7.109375q4.109375 4.921875 4.109375 11.328125q0 10.109375 -6.34375 17.53125q-6.328125 7.421875 -18.5 11.453125q-12.156258 4.03125 -29.296883 4.03125q-6.40625 0 -10.25 -0.375q-0.125 3.578125 -3.078125 5.375q-2.9375 1.796875 -7.546875 1.796875q-4.609375 0 -6.34375 -2.0625q-1.71875 -2.046875 -1.453125 -6.0q1.140625 -17.921875 4.46875 -37.5625q3.328125 -19.65625 8.453125 -37.96875q0.890625 -3.203125 3.578125 -4.46875q2.6875 -1.28125 7.046875 -1.28125q7.8125 0 7.8125 4.34375q0 1.796875 -0.78125 4.09375q-3.328125 9.984375 -6.65625 27.078125q-3.328125 17.078125 -4.734375 32.578125q6.15625 0.5 9.984375 0.5q17.921875 0 26.296883 -5.171875q8.390625 -5.1875 8.390625 -13.25q0 -5.640625 -4.796875 -9.46875q-4.796875 -3.84375 -16.062508 -4.234375q-2.5625 -0.125 -3.59375 -1.265625q-1.015625 -1.15625 -1.015625 -3.71875q0 -3.71875 1.53125 -6.015625q1.546875 -2.3125 5.640625 -2.4375q9.078133 -0.25 16.437508 -2.6875q7.375 -2.4375 11.59375 -6.84375q4.21875 -4.421875 4.21875 -10.3125q0 -7.421875 -7.296875 -11.703125q-7.296875 -4.296875 -22.390633 -4.296875q-13.703125 0 -26.5 3.53125q-12.796875 3.515625 -21.765625 8.890625q-4.09375 2.4375 -6.90625 2.4375q-2.3125 0 -3.53125 -1.59375q-1.203125 -1.609375 -1.203125 -4.046875q0 -3.203125 1.34375 -5.5q1.34375 -2.3125 6.46875 -5.25q10.75 -6.140625 25.203125 -9.59375q14.46875 -3.46875 29.578133 -3.46875q23.15625 0 34.546875 7.8125q11.40625 7.8125 11.40625 20.609375z" fill-rule="nonzero"/><path fill="#000000" fill-opacity="0.0" d="m135.37534 38.577427l314.96063 0l0 314.96063l-314.96063 0z" fill-rule="evenodd"/><path fill="#000000" d="m269.0472 213.39087q1.671875 0 2.625 1.546875q0.953125 1.53125 0.953125 4.21875q0 4.984375 -2.421875 7.9375q-12.671875 15.484375 -27.015625 15.484375q-12.40625 0 -19.84375 -9.59375q-7.421875 -9.609375 -7.421875 -27.53125q0 -4.34375 0.390625 -8.703125q-8.453125 1.546875 -18.4375 2.3125q-6.65625 0.5 -9.078125 0.640625q-2.5625 13.046875 -7.171875 32.0q-2.6875 11.125 -10.234375 11.125q-8.203125 0 -8.203125 -7.421875q0 -1.65625 0.640625 -4.609375q4.359375 -17.53125 6.921875 -29.6875l-6.15625 0.25q-4.21875 0 -6.140625 -1.46875q-1.921875 -1.46875 -1.921875 -4.796875q0 -4.234375 2.4375 -6.21875q2.4375 -1.984375 8.0625 -2.234375l6.78125 -0.25q3.328125 -18.046875 3.328125 -27.53125q0 -6.015625 -1.796875 -8.1875q-1.78125 -2.171875 -4.734375 -2.171875q-8.953125 0 -20.21875 14.96875q-1.65625 2.1875 -3.71875 2.1875q-1.78125 0 -3.0625 -1.65625q-1.28125 -1.671875 -1.28125 -4.234375q0 -3.96875 3.203125 -8.453125q5.625 -7.8125 14.203125 -12.859375q8.578125 -5.0625 17.40625 -5.0625q8.328125 0 12.859375 5.703125q4.546875 5.6875 4.546875 17.71875q0 10.625 -3.0625 28.8125l12.53125 -0.640625q8.078125 -0.390625 13.828125 -1.28125q2.3125 -14.078125 7.046875 -26.359375q4.734375 -12.296875 11.765625 -19.96875q7.046875 -7.6875 15.75 -7.6875q6.40625 0 10.109375 5.0625q3.71875 5.046875 3.71875 13.234375q0 31.75 -32.390625 44.03125q-0.375 5.125 -0.375 10.625q0 13.4375 3.328125 19.078125q3.328125 5.625 9.34375 5.625q5.25 0 9.59375 -2.75q4.359375 -2.75 9.859375 -9.40625q1.53125 -1.796875 3.453125 -1.796875zm-17.28125 -72.578125q-2.8125 0 -5.953125 5.125q-3.140625 5.125 -5.953125 13.953125q-2.8125 8.828125 -4.46875 19.328125q10.234375 -4.21875 15.09375 -12.03125q4.859375 -7.8125 4.859375 -20.09375q0 -2.953125 -1.03125 -4.609375q-1.015625 -1.671875 -2.546875 -1.671875z" fill-rule="nonzero"/></g></svg>